HIERARCHY
ROOT Hips
{
	OFFSET 52.799400 -3.184924 84.430099
	CHANNELS 6 Xposition Yposition Zposition Xrotation Yrotation Zrotation
	JOINT spine
	{
		OFFSET 0.000000 -0.342408 5.954376
		CHANNELS 3 Xrotation Yrotation Zrotation
		JOINT spine1
		{
			OFFSET 0.000000 -0.000001 8.856018
			CHANNELS 3 Xrotation Yrotation Zrotation
			JOINT spine2
			{
				OFFSET 0.000000 -0.000001 8.485672
				CHANNELS 3 Xrotation Yrotation Zrotation
				JOINT Neck
				{
					OFFSET 0.000000 -1.038703 21.786301
					CHANNELS 3 Xrotation Yrotation Zrotation
					JOINT Head
					{
						OFFSET 0.000000 -0.000001 6.582199
						CHANNELS 3 Xrotation Yrotation Zrotation
						End Site
						{
							OFFSET 0.000000 5.254357 15.932602
						}
					}
				}
				JOINT RightShoulder
				{
					OFFSET -3.573071 0.497524 9.163864
					CHANNELS 3 Xrotation Yrotation Zrotation
					JOINT RightArm
					{
						OFFSET 0.000000 -0.000002 12.019196
						CHANNELS 3 Xrotation Yrotation Zrotation
						JOINT RightArmRoll
						{
							OFFSET 0.000000 -0.000001 6.067551
							CHANNELS 3 Xrotation Yrotation Zrotation
							JOINT RightForeArm
							{
								OFFSET 0.000000 -0.000003 17.672607
								CHANNELS 3 Xrotation Yrotation Zrotation
								JOINT RightForeArmRoll
								{
									OFFSET 0.000000 -0.000001 6.808716
									CHANNELS 3 Xrotation Yrotation Zrotation
									JOINT RightHand
									{
										OFFSET 0.000000 -0.000002 13.663605
										CHANNELS 3 Xrotation Yrotation Zrotation
										End Site
										{
											OFFSET 0.000000 0.000000 0.100006
										}
									}
								}
							}
						}
					}
				}
				JOINT LeftShoulder
				{
					OFFSET 3.573071 0.497524 9.163864
					CHANNELS 3 Xrotation Yrotation Zrotation
					JOINT LeftArm
					{
						OFFSET 0.000000 -0.000002 12.019196
						CHANNELS 3 Xrotation Yrotation Zrotation
						JOINT LeftArmRoll
						{
							OFFSET 0.000000 -0.000001 6.067535
							CHANNELS 3 Xrotation Yrotation Zrotation
							JOINT LeftForeArm
							{
								OFFSET 0.000000 -0.000003 17.672592
								CHANNELS 3 Xrotation Yrotation Zrotation
								JOINT LeftForeArmRoll
								{
									OFFSET 0.000000 -0.000001 6.808716
									CHANNELS 3 Xrotation Yrotation Zrotation
									JOINT LeftHand
									{
										OFFSET 0.000000 -0.000002 13.663605
										CHANNELS 3 Xrotation Yrotation Zrotation
										End Site
										{
											OFFSET 0.000000 0.000000 0.100006
										}
									}
								}
							}
						}
					}
				}
			}
		}
	}
	JOINT RightUpLeg
	{
		OFFSET -5.277740 0.811858 -0.967796
		CHANNELS 3 Xrotation Yrotation Zrotation
		JOINT RightUpLegRoll
		{
			OFFSET 0.000000 -0.000003 16.021400
			CHANNELS 3 Xrotation Yrotation Zrotation
			JOINT RightLeg
			{
				OFFSET 0.000000 0.000003 -19.840103
				CHANNELS 3 Xrotation Yrotation Zrotation
				JOINT RightLegRoll
				{
					OFFSET 0.000000 -0.000003 19.904999
					CHANNELS 3 Xrotation Yrotation Zrotation
					JOINT RightFoot
					{
						OFFSET 0.000000 -0.000003 16.567497
						CHANNELS 3 Xrotation Yrotation Zrotation
						JOINT RightToeBase
						{
							OFFSET 0.000000 -0.000002 13.849602
							CHANNELS 3 Xrotation Yrotation Zrotation
							End Site
							{
								OFFSET 0.005871 0.773116 6.707275
							}
						}
					}
				}
			}
		}
	}
	JOINT LeftUpLeg
	{
		OFFSET 5.277740 0.811858 -0.967796
		CHANNELS 3 Xrotation Yrotation Zrotation
		JOINT LeftUpLegRoll
		{
			OFFSET 0.000000 -0.000003 16.021500
			CHANNELS 3 Xrotation Yrotation Zrotation
			JOINT LeftLeg
			{
				OFFSET 0.000000 -0.000003 19.840004
				CHANNELS 3 Xrotation Yrotation Zrotation
				JOINT LeftLegRoll
				{
					OFFSET 0.000000 -0.000003 20.089005
					CHANNELS 3 Xrotation Yrotation Zrotation
					JOINT LeftFoot
					{
						OFFSET 0.000000 -0.000003 16.383499
						CHANNELS 3 Xrotation Yrotation Zrotation
						JOINT LeftToeBase
						{
							OFFSET 0.000000 -0.000002 13.849594
							CHANNELS 3 Xrotation Yrotation Zrotation
							End Site
							{
								OFFSET -0.026310 0.773116 6.707275
							}
						}
					}
				}
			}
		}
	}
}
MOTION
Frames: 4
Frame Time: 0.041667
53.182800 -1.846156 84.344810 -7.614716 0.725075 -1.467977 -0.630288 -0.285157 0.058656 2.726086 -0.569921 0.124131 4.371176 -0.568390 0.130978 13.182614 8.198425 -1.598197 2.652369 -9.318991 -1.571972 6.436624 -73.428522 5.373553 -39.475239 -111.503214 -43.922512 0.000001 -0.000000 0.000000 -0.024512 3.637921 -1.990804 -0.000002 0.000007 -3.011609 -5.000183 -7.999909 0.000017 -4.873260 70.341352 6.685994 -35.173808 115.156416 42.010441 -0.000001 -0.000000 -0.000001 -0.023784 -3.644721 1.990806 0.000004 -0.000004 3.011601 -5.000144 7.999910 -0.000000 0.884481 -179.975007 3.098936 -179.999991 0.000005 -1.133998 169.336987 -2.748776 -0.613337 -0.000001 -0.000003 0.171909 70.251166 6.851610 2.150926 25.456953 -7.355613 0.000010 1.895940 179.072506 -0.483586 -0.000004 -0.000004 -1.145320 -10.682094 2.451974 0.502630 0.000002 -0.000003 -0.179641 70.934691 -6.827300 -2.169920 25.456948 7.355613 -0.000000 
53.199001 -1.839954 84.349800 -7.611676 0.720609 -1.472544 -0.630232 -0.286205 0.058656 2.725927 -0.571541 0.124131 4.371016 -0.570007 0.130979 13.171721 8.234999 -1.603849 2.650999 -9.354515 -1.579011 6.403224 -73.407936 5.340293 -39.476410 -111.502326 -43.922546 -0.000000 -0.000000 -0.000000 -0.024513 3.637921 -1.990804 -0.000002 0.000007 -3.011610 -5.000183 -7.999909 0.000017 -4.901801 70.365449 6.719633 -35.166598 115.131472 41.985706 -0.000000 -0.000000 0.000000 -0.023783 -3.644721 1.990808 0.000004 -0.000004 3.011599 -5.000144 7.999909 -0.000000 0.876310 -179.970020 3.099459 -179.999991 0.000005 -1.133998 169.327493 -2.746731 -0.614420 -0.000001 -0.000003 0.171910 70.257532 6.851610 2.150935 25.456952 -7.355613 0.000010 1.895436 179.081508 -0.476869 -0.000004 -0.000004 -1.145320 -10.677369 2.449497 0.502597 0.000002 -0.000003 -0.179641 70.932457 -6.827296 -2.169958 25.456953 7.355613 -0.000000 
53.198002 -1.842223 84.337997 -7.608589 0.716058 -1.477111 -0.630147 -0.287299 0.058656 2.725786 -0.573195 0.124131 4.370878 -0.571659 0.130979 13.160454 8.272496 -1.609406 2.650143 -9.390763 -1.585988 6.370584 -73.386817 5.307951 -39.475987 -111.502196 -43.921699 0.000001 -0.000000 -0.000001 -0.024512 3.637921 -1.990805 -0.000001 0.000007 -3.011611 -5.000183 -7.999908 0.000016 -4.930940 70.390632 6.754005 -35.156162 115.106801 41.957453 0.000000 0.000000 0.000000 -0.023784 -3.644720 1.990809 0.000004 -0.000004 3.011600 -5.000143 7.999909 -0.000001 0.868311 -179.965007 3.099841 -179.999991 0.000005 -1.133998 169.318409 -2.743695 -0.614299 -0.000001 -0.000003 0.171909 70.264014 6.851646 2.150839 25.456957 -7.355614 0.000010 1.894803 179.090511 -0.469998 -0.000005 -0.000004 -1.145320 -10.672444 2.446941 0.502548 0.000002 -0.000003 -0.179641 70.930101 -6.827296 -2.170001 25.456950 7.355613 -0.000000 
53.188301 -1.849084 84.341698 -7.605459 0.711448 -1.481686 -0.630045 -0.288424 0.058656 2.725656 -0.574875 0.124131 4.370750 -0.573337 0.130979 13.149014 8.310624 -1.614899 2.649643 -9.427542 -1.592909 6.338506 -73.365186 5.276273 -39.473723 -111.502790 -43.919486 -0.000000 -0.000000 0.000000 -0.024511 3.637921 -1.990804 -0.000001 0.000007 -3.011611 -5.000185 -7.999908 0.000015 -4.960442 70.416505 6.788839 -35.145377 115.080860 41.928878 0.000001 0.000000 -0.000000 -0.023784 -3.644720 1.990808 0.000003 -0.000004 3.011601 -5.000144 7.999909 -0.000001 0.860433 -179.959994 3.100140 -179.999991 0.000005 -1.133997 169.309420 -2.740661 -0.615170 -0.000001 -0.000003 0.171909 70.270598 6.851645 2.150934 25.456955 -7.355615 0.000010 1.894078 179.099486 -0.463022 -0.000005 -0.000004 -1.145320 -10.667520 2.444318 0.502491 0.000002 -0.000003 -0.179641 70.927655 -6.827290 -2.169950 25.456955 7.355614 -0.000001 
